Coordinates
version=1
nRows=5
nColumns=114
inDegrees=yes

Units are S.I. units (second, meters, Newtons, ...)
If the header above contains a line with 'inDegrees', this indicates whether rotational values are in degrees (yes) or radians (no).

endheader 
time	pelvis_tilt	pelvis_list	pelvis_rotation	pelvis_tx	pelvis_ty	pelvis_tz	hip_flexion_l	hip_adduction_l	hip_rotation_l	hip_flexion_r	hip_adduction_r	hip_rotation_r	knee_angle_l	knee_angle_r	ankle_angle_l	ankle_angle_r	subtalar_angle_l	subtalar_angle_r	mtp_angle_l	mtp_angle_r	lumbar_extension	lumbar_bending	lumbar_rotation	arm_flex_l	arm_add_l	arm_rot_l	arm_flex_r	arm_add_r	arm_rot_r	elbow_flex_l	elbow_flex_r	pro_sup_l	pro_sup_r	addbrev_l/activation	addlong_l/activation	addmagDist_l/activation	addmagIsch_l/activation	addmagMid_l/activation	addmagProx_l/activation	bflh_l/activation	bfsh_l/activation	edl_l/activation	ehl_l/activation	fdl_l/activation	fhl_l/activation	gaslat_l/activation	gasmed_l/activation	glmax1_l/activation	glmax2_l/activation	glmax3_l/activation	glmed1_l/activation	glmed2_l/activation	glmed3_l/activation	glmin1_l/activation	glmin2_l/activation	glmin3_l/activation	grac_l/activation	iliacus_l/activation	perbrev_l/activation	perlong_l/activation	piri_l/activation	psoas_l/activation	recfem_l/activation	sart_l/activation	semimem_l/activation	semiten_l/activation	soleus_l/activation	tfl_l/activation	tibant_l/activation	tibpost_l/activation	vasint_l/activation	vaslat_l/activation	vasmed_l/activation	addbrev_r/activation	addlong_r/activation	addmagDist_r/activation	addmagIsch_r/activation	addmagMid_r/activation	addmagProx_r/activation	bflh_r/activation	bfsh_r/activation	edl_r/activation	ehl_r/activation	fdl_r/activation	fhl_r/activation	gaslat_r/activation	gasmed_r/activation	glmax1_r/activation	glmax2_r/activation	glmax3_r/activation	glmed1_r/activation	glmed2_r/activation	glmed3_r/activation	glmin1_r/activation	glmin2_r/activation	glmin3_r/activation	grac_r/activation	iliacus_r/activation	perbrev_r/activation	perlong_r/activation	piri_r/activation	psoas_r/activation	recfem_r/activation	sart_r/activation	semimem_r/activation	semiten_r/activation	soleus_r/activation	tfl_r/activation	tibant_r/activation	tibpost_r/activation	vasint_r/activation	vaslat_r/activation	vasmed_r/activation	
          0.77000000	         -3.65567395	          1.95424262	        -32.62428822	          1.27778810	          0.93204214	          0.38211578	          0.66342522	         -4.47251222	         -9.11814149	          0.54964332	         -3.35154514	        -12.14503977	          8.61347387	         10.30255218	         10.40865553	         12.13390919	         -2.64131503	        -12.26361547	        -38.35382111	          4.99996501	         -3.92961171	         -2.71073507	          2.39018903	          6.59118609	        -17.90989085	         39.43893224	          2.38144111	        -15.39832266	         24.68003660	         21.76654663	         22.74788257	         89.35393352	         87.30483195	          0.01415025	          0.13855718	          0.01000896	          0.01000683	          0.01002537	          0.01020618	          0.01000146	          0.02735889	          0.03237103	          0.02778179	          0.01048935	          0.01020078	          0.04105112	          0.02737618	          0.01000305	          0.01000187	          0.01000216	          0.02640071	          0.01000549	          0.01000265	          0.03978913	          0.02491491	          0.01001385	          0.01012415	          0.11728920	          0.01004340	          0.01002149	          0.01000289	          0.10269859	          0.01726143	          0.06630689	          0.01000096	          0.01000429	          0.01000548	          0.06439515	          0.08469981	          0.01296413	          0.01001279	          0.01000448	          0.01000931	          0.03464702	          0.12798534	          0.01001962	          0.01000927	          0.01012455	          0.02912308	          0.01000606	          0.01511067	          0.03006578	          0.01834353	          0.01010618	          0.01005572	          0.01001883	          0.01002071	          0.01001826	          0.01000696	          0.01000851	          0.01000430	          0.01002592	          0.01198232	          0.01001414	          0.01013495	          0.02827160	          0.02333812	          0.06965211	          0.01634624	          0.02008898	          0.06114386	          0.09755266	          0.02102894	          0.06409736	          0.01000232	          0.01000827	          0.01000224	          0.02167425	          0.04871517	          0.01004159	          0.01001989	          0.01000696	          0.01001464	
          0.78000000	         -3.80542954	          2.04791003	        -32.61645760	          1.27595064	          0.93556327	          0.38188237	          1.15174428	         -4.55805180	         -9.11024294	          1.05959689	         -3.38788552	        -12.22822386	          9.08275352	         10.78337223	         10.55767340	         12.23813631	         -2.67525563	        -12.44074169	        -33.95889874	          4.42832720	         -4.06283738	         -2.72744050	          2.20601865	          6.63000990	        -18.00872232	         39.53342091	          2.40528418	        -15.43451478	         24.77066546	         21.69421686	         22.62243578	         89.58883156	         87.44113303	          0.01179908	          0.11546637	          0.01000604	          0.01000554	          0.01000761	          0.01001495	          0.01001052	          0.05369729	          0.02706253	          0.02441694	          0.01005783	          0.01009196	          0.04886242	          0.08570681	          0.01001346	          0.01000621	          0.01000294	          0.02200789	          0.01200456	          0.01019144	          0.03316584	          0.02082838	          0.01410669	          0.01007878	          0.09774465	          0.01020862	          0.01007480	          0.01210673	          0.08558781	          0.01438553	          0.05527450	          0.01003309	          0.01003149	          0.01000208	          0.05366401	          0.10191428	          0.04067046	          0.01000271	          0.01000091	          0.01000195	          0.02889049	          0.10666076	          0.01001081	          0.01000951	          0.01001349	          0.02428375	          0.01000858	          0.04290103	          0.02508014	          0.01540881	          0.01005805	          0.01002182	          0.04389979	          0.02623303	          0.01001146	          0.01000606	          0.01000435	          0.01196343	          0.01009888	          0.01003467	          0.01205077	          0.01394929	          0.02359610	          0.01954221	          0.05807032	          0.01446950	          0.01683250	          0.05096141	          0.08130892	          0.01752587	          0.05346640	          0.01001936	          0.01004162	          0.01213352	          0.01808152	          0.04061034	          0.01001776	          0.01000407	          0.01000135	          0.01000295	
          0.79000000	         -3.94478319	          2.12286160	        -32.65460757	          1.27389771	          0.93816390	          0.38161632	          1.66606469	         -4.66277432	         -9.13932348	          1.59341204	         -3.40141215	        -12.32264335	          9.56812310	         11.27464985	         10.61020160	         12.32033869	         -2.78635302	        -12.49026217	        -30.10213100	          3.73850583	         -4.26597020	         -2.73808233	          2.10348037	          6.64910179	        -18.15745928	         39.46457346	          2.33636849	        -15.54662547	         24.75075101	         21.93053499	         22.85567493	         89.59391432	         87.43796904	          0.05370418	          0.12623367	          0.01210377	          0.01077348	          0.02595756	          0.03873442	          0.03586123	          0.04475596	          0.02255592	          0.02035787	          0.02013861	          0.03313145	          0.06560490	          0.09092749	          0.01002062	          0.01001383	          0.01036682	          0.01834194	          0.01001447	          0.01001049	          0.02764188	          0.01736356	          0.01176560	          0.03354316	          0.08145664	          0.01001902	          0.01000809	          0.01010441	          0.07132790	          0.01199901	          0.04606795	          0.04654850	          0.02101992	          0.03207074	          0.04472407	          0.08493023	          0.05611260	          0.01002756	          0.01000990	          0.01001912	          0.04902367	          0.08894516	          0.01006988	          0.01003050	          0.01710765	          0.05630149	          0.01154555	          0.03576378	          0.02090553	          0.01285661	          0.01026327	          0.01058613	          0.08452762	          0.07164544	          0.01003671	          0.01001730	          0.01002937	          0.01001212	          0.01003540	          0.01025591	          0.01006181	          0.01164350	          0.01969162	          0.03173443	          0.04839924	          0.01211333	          0.01405126	          0.07826827	          0.06776787	          0.01993658	          0.04456812	          0.01004263	          0.01011870	          0.05459555	          0.01507269	          0.03384482	          0.01015885	          0.01001485	          0.01000504	          0.01001050	
          0.80000000	         -4.14204289	          2.21945300	        -32.69972199	          1.27169543	          0.93996138	          0.38130757	          2.34950916	         -4.81291588	         -9.20187334	          2.26074531	         -3.39541553	        -12.37874265	         10.21807230	         11.87000934	         10.73748252	         12.42107793	         -2.93598808	        -12.61623862	        -26.71331828	          2.82530368	         -4.42042164	         -2.73836536	          2.01900192	          6.66980163	        -18.30249223	         39.34590249	          2.29458341	        -15.64608226	         24.75750008	         22.16445826	         23.09256980	         89.41496195	         87.28993808	          0.04475958	          0.10519666	          0.01009878	          0.01002395	          0.02163837	          0.03228745	          0.02989331	          0.03731351	          0.01880646	          0.01698466	          0.01679565	          0.02761857	          0.06626366	          0.08825952	          0.01011644	          0.01005170	          0.01001575	          0.01529381	          0.01207064	          0.01205175	          0.02304233	          0.01449984	          0.01233172	          0.02796860	          0.06788404	          0.01013598	          0.01027051	          0.01415959	          0.05944502	          0.01001299	          0.03839859	          0.04428982	          0.01757416	          0.02672760	          0.03727209	          0.07080111	          0.04679499	          0.01001181	          0.01000408	          0.01000867	          0.04092603	          0.07413601	          0.01189258	          0.01006078	          0.01434618	          0.04734253	          0.01200054	          0.02982223	          0.01743251	          0.01078507	          0.01042238	          0.01089360	          0.08112899	          0.14016612	          0.01170727	          0.01008645	          0.01200338	          0.01000993	          0.01004532	          0.01741773	          0.01002106	          0.01003648	          0.01649096	          0.02656439	          0.04034342	          0.01013462	          0.01172080	          0.06776496	          0.05648964	          0.01663041	          0.03715837	          0.01003326	          0.01010021	          0.04808176	          0.01257203	          0.02821292	          0.01221710	          0.01006749	          0.01002712	          0.01005113	
          0.81000000	         -4.39676985	          2.34047214	        -32.73149900	          1.26941632	          0.94121947	          0.38094750	          3.21853165	         -5.00452310	         -9.27621060	          3.08217030	         -3.38708267	        -12.37239636	         11.09986904	         12.63542721	         10.99759581	         12.56879121	         -3.10520621	        -12.86802587	        -23.73790931	          1.89184292	         -4.50926210	         -2.72996029	          1.91989972	          6.69987560	        -18.41997896	         39.20312453	          2.32116191	        -15.70018595	         24.81259932	         22.28014585	         23.20013553	         89.26979967	         87.16499303	          0.03734472	          0.11185054	          0.01005696	          0.01004360	          0.01807147	          0.02696733	          0.03968848	          0.03111685	          0.01568039	          0.01418301	          0.01776580	          0.02858572	          0.06340149	          0.09023774	          0.01003504	          0.01002006	          0.01002859	          0.01274988	          0.01008462	          0.01007476	          0.01920887	          0.01210168	          0.01032244	          0.02353597	          0.05657466	          0.01002324	          0.01000847	          0.01182227	          0.04954624	          0.01001278	          0.03200861	          0.06504968	          0.02513066	          0.02301277	          0.03106335	          0.05900363	          0.04001826	          0.01001191	          0.01000407	          0.01000866	          0.03414280	          0.06180368	          0.01002029	          0.01001248	          0.01196887	          0.03949287	          0.01001609	          0.02907292	          0.01454002	          0.01011683	          0.01010569	          0.01008797	          0.08504353	          0.13269330	          0.01002295	          0.01000975	          0.01001307	          0.01002039	          0.01006622	          0.01453262	          0.01006143	          0.01038654	          0.01963995	          0.02222183	          0.04657799	          0.01141344	          0.01303801	          0.06240582	          0.06545837	          0.03815847	          0.04964218	          0.01000901	          0.01002706	          0.04998092	          0.02051352	          0.02351739	          0.01020985	          0.01000917	          0.01000305	          0.01000671	
